<svg width="397" height="425" viewBox="0 0 397 425" fill="none" xmlns="http://www.w3.org/2000/svg">
    <g filter="url(#filter0_d_40_97)">
    <path fill-rule="evenodd" clip-rule="evenodd" d="M387.67 333.764C395.452 415.452 401.847 505.74 350.399 567.41C296.984 631.437 209.466 647.065 128.59 644.316C50.5387 641.663 -26.3692 613.235 -79.351 552.803C-130.523 494.435 -147.952 413.087 -143.678 333.763C-139.655 259.114 -103.276 194.962 -57.0141 138.253C-5.67643 75.322 49.8253 -0.952733 128.59 0.00899169C207.03 0.966741 260.285 78.7652 309.941 142.734C353.22 198.488 380.843 262.103 387.67 333.764Z" fill="url(#paint0_linear_40_97)" shape-rendering="crispEdges"/>
    </g>
    <defs>
    <filter id="filter0_d_40_97" x="-148.298" y="0" width="545.209" height="652.613" filterUnits="userSpaceOnUse" color-interpolation-filters="sRGB">
    <feFlood flood-opacity="0" result="BackgroundImageFix"/>
    <feColorMatrix in="SourceAlpha" type="matrix" values="0 0 0 0 0 0 0 0 0 0 0 0 0 0 0 0 0 0 127 0" result="hardAlpha"/>
    <feOffset dy="4"/>
    <feGaussianBlur stdDeviation="2"/>
    <feComposite in2="hardAlpha" operator="out"/>
    <feColorMatrix type="matrix" values="0 0 0 0 0 0 0 0 0 0 0 0 0 0 0 0 0 0 0.25 0"/>
    <feBlend mode="normal" in2="BackgroundImageFix" result="effect1_dropShadow_40_97"/>
    <feBlend mode="normal" in="SourceGraphic" in2="effect1_dropShadow_40_97" result="shape"/>
    </filter>
    <linearGradient id="paint0_linear_40_97" x1="392.911" y1="322.307" x2="-144.298" y2="322.307" gradientUnits="userSpaceOnUse">
    <stop stop-color="#FF7235" stop-opacity="0.4"/>
    <stop offset="1" stop-color="white" stop-opacity="0.4"/>
    </linearGradient>
    </defs>
</svg>
